<?xml version="1.0" encoding="UTF-8" standalone="no"?><!DOCTYPE svg PUBLIC "-//W3C//DTD SVG 1.1//EN" "http://www.w3.org/Graphics/SVG/1.1/DTD/svg11.dtd"><svg width="100%" height="100%" viewBox="0 0 77 19" version="1.1" xmlns="http://www.w3.org/2000/svg" xmlns:xlink="http://www.w3.org/1999/xlink" xml:space="preserve" xmlns:serif="http://www.serif.com/" style="fill-rule:evenodd;clip-rule:evenodd;stroke-linejoin:round;stroke-miterlimit:2;"><g><path d="M30.73,0.258l0,17.7l-2.141,0l-8.644,-12.952l-0.077,0.025l0,12.927l-2.297,0l0,-17.7l2.219,0l8.567,12.798l0.077,-0.026l0,-12.772l2.296,0Z" style="fill:#fff;fill-rule:nonzero;"/><path d="M41.98,0c1.376,0 2.576,0.267 3.6,0.8c1.023,0.533 1.81,1.29 2.361,2.27c0.55,0.981 0.825,2.116 0.825,3.406l-2.528,0c0,-1.324 -0.366,-2.352 -1.097,-3.083c-0.731,-0.731 -1.785,-1.097 -3.161,-1.097c-1.548,0 -2.726,0.478 -3.535,1.432c-0.808,0.955 -1.212,2.361 -1.212,4.219l0,2.322c0,1.858 0.4,3.264 1.199,4.219c0.8,0.955 1.983,1.432 3.548,1.432c1.497,0 2.589,-0.374 3.277,-1.122c0.688,-0.749 1.032,-1.94 1.032,-3.574l0,-0.335l-5.005,0l0,-2.271l7.482,0l0,6.038c0,1.427 0.052,2.528 0.155,3.302l-1.497,0c-0.223,-0.705 -0.395,-1.41 -0.516,-2.115c-1.118,1.582 -2.76,2.373 -4.928,2.373c-2.288,0 -4.072,-0.701 -5.354,-2.103c-1.281,-1.401 -1.922,-3.35 -1.922,-5.844l0,-2.322c0,-2.477 0.641,-4.421 1.922,-5.831c1.282,-1.411 3.066,-2.116 5.354,-2.116Z" style="fill:#fff;fill-rule:nonzero;"/><path d="M58.597,0.258l0,2.296l-2.064,0l0,13.108l2.064,0l0,2.296l-6.657,0l0,-2.296l2.064,0l0,-13.108l-2.064,0l0,-2.296l6.657,0Z" style="fill:#fff;fill-rule:nonzero;"/><path d="M68.866,0c1.462,0 2.744,0.318 3.845,0.955c1.101,0.636 1.956,1.552 2.567,2.748c0.611,1.195 0.916,2.61 0.916,4.244l0,2.322c0,1.634 -0.305,3.049 -0.916,4.245c-0.611,1.195 -1.466,2.111 -2.567,2.748c-1.101,0.636 -2.383,0.954 -3.845,0.954c-1.462,0 -2.744,-0.318 -3.844,-0.954c-1.101,-0.637 -1.957,-1.553 -2.568,-2.748c-0.61,-1.196 -0.916,-2.611 -0.916,-4.245l0,-2.322c0,-1.634 0.306,-3.049 0.916,-4.244c0.611,-1.196 1.467,-2.112 2.568,-2.748c1.1,-0.637 2.382,-0.955 3.844,-0.955Zm0,2.296c-1.514,0 -2.692,0.482 -3.535,1.445c-0.843,0.964 -1.264,2.366 -1.264,4.206l0,2.322c0,1.841 0.408,3.243 1.226,4.206c0.817,0.963 2.008,1.445 3.573,1.445c1.514,0 2.692,-0.477 3.535,-1.432c0.843,-0.955 1.264,-2.361 1.264,-4.219l0,-2.322c0,-1.84 -0.408,-3.242 -1.225,-4.206c-0.817,-0.963 -2.009,-1.445 -3.574,-1.445Z" style="fill:#fff;fill-rule:nonzero;"/><path d="M0,17.958l6.296,-17.7l2.709,0l6.296,17.7l-2.71,0l-4.979,-14.268l-0.155,0l-5.006,14.268l-2.451,0Z" style="fill:#fff;fill-rule:nonzero;"/></g></svg>